<?xml version="1.0" encoding="utf-8"?>
<svg version="1.0" width="696.000000pt" height="629.000000pt" viewBox="0 0 696.000000 629.000000" preserveAspectRatio="xMidYMid meet" xmlns="http://www.w3.org/2000/svg">
  <defs>
    <linearGradient gradientUnits="userSpaceOnUse" x1="4066.47" y1="3430" x2="4066.47" y2="4190" id="gradient-0" gradientTransform="matrix(-0.000524, -1, 1.129238, -0.000591, -239.230963, 7889.582874)">
      <stop offset="0" style="stop-color: rgb(0, 31, 28);"/>
      <stop offset="1" style="stop-color: rgb(0, 91, 90);"/>
    </linearGradient>
    <linearGradient gradientUnits="userSpaceOnUse" x1="4068.89" y1="2450" x2="4068.89" y2="3220" id="gradient-1" gradientTransform="matrix(0.01099, -0.99994, 1.128682, 0.012404, 824.364191, 6868.480966)">
      <stop offset="0" style="stop-color: rgb(0, 31, 28);"/>
      <stop offset="1" style="stop-color: rgb(0, 91, 90);"/>
    </linearGradient>
    <linearGradient gradientUnits="userSpaceOnUse" x1="4955.5" y1="2970" x2="4955.5" y2="3730" id="gradient-2" gradientTransform="matrix(-0.000523, -1, 1.129238, -0.00059, 1180.575625, 8307.48063)">
      <stop offset="0" style="stop-color: rgb(0, 91, 90);"/>
      <stop offset="1" style="stop-color: rgb(14, 131, 138);"/>
    </linearGradient>
    <linearGradient gradientUnits="userSpaceOnUse" x1="4721.061" y1="1249" x2="4721.061" y2="1630" id="gradient-3" gradientTransform="matrix(0.002039, -0.999998, 0.997964, 0.002035, 3302.023732, 6163.053999)">
      <stop offset="0" style="stop-color: rgb(0, 39, 37);"/>
      <stop offset="1" style="stop-color: rgb(0, 86, 85);"/>
    </linearGradient>
    <linearGradient gradientUnits="userSpaceOnUse" x1="5134" y1="1250.703" x2="5134" y2="1630" id="gradient-4" gradientTransform="matrix(0.033855, -0.999426, 0.773315, 0.026196, 3873.497395, 6544.538773)">
      <stop offset="0" style="stop-color: rgb(2, 97, 97);"/>
      <stop offset="1" style="stop-color: rgb(14, 129, 136);"/>
    </linearGradient>
  </defs>
  <g transform="translate(0.000000,629.000000) scale(0.100000,-0.100000)" fill="#000000" stroke="none">
    <path d="M2032 4678 c-11 -18 -61 -104 -111 -192 l-91 -158 106 -185 c59 -102 112 -187 119 -189 6 -3 55 -3 108 -2 l96 3 -105 184 c-87 152 -104 188 -96 205 5 12 50 95 101 185 50 90 91 167 91 172 0 5 -45 9 -99 9 l-99 0 -20 -32z" style="fill: rgb(0, 140, 142);"/>
    <path d="M2352 4519 l-110 -191 105 -181 c57 -100 108 -186 112 -190 4 -4 55 -6 114 -5 l105 3 -105 185 -105 185 21 40 c11 22 58 109 105 193 l84 152 -107 0 -108 0 -111 -191z" style="fill: rgb(0, 31, 28);"/>
    <path d="M2834 4524 c-59 -103 -107 -192 -107 -198 0 -6 48 -92 105 -191 l104 -180 225 -3 224 -2 109 189 108 190 -109 188 -108 188 -222 3 -221 2 -108 -186z" style="fill: rgb(0, 31, 28);"/>
    <path d="M3740 4008 c-58 -100 -106 -187 -107 -193 -2 -5 46 -93 105 -195 l108 -185 220 -3 221 -2 106 185 c59 102 107 191 107 198 0 7 -47 93 -104 192 l-104 180 -223 3 -224 2 -105 -182z" style="paint-order: fill; fill: url(#gradient-0);"/>
    <path d="M2017 3683 c-19 -32 -69 -118 -111 -191 l-76 -133 107 -185 c58 -102 112 -188 118 -190 6 -3 55 -3 107 -2 l96 3 -104 185 c-57 102 -104 187 -104 190 0 3 45 87 100 185 55 99 100 183 100 188 0 4 -45 7 -99 7 l-100 0 -34 -57z" style="fill: rgb(0, 140, 142);"/>
    <path d="M2352 3549 l-110 -190 105 -182 c58 -100 108 -186 112 -190 4 -4 55 -6 114 -5 l106 3 -105 185 c-57 102 -104 187 -104 190 0 3 47 89 104 193 l104 187 -108 0 -108 0 -110 -191z" style="fill: rgb(0, 31, 28);"/>
    <path d="M2902 3663 c-22 -38 -71 -123 -110 -190 l-71 -123 108 -187 109 -188 223 -2 224 -3 108 190 109 190 -109 190 -108 189 -222 1 -222 0 -39 -67z" style="fill: rgb(0, 31, 28);"/>
    <path d="M4722 3698 c-11 -18 -61 -104 -111 -190 l-90 -158 108 -187 109 -188 220 -3 220 -2 106 183 c58 101 106 190 106 197 0 7 -48 96 -106 197 l-106 183 -218 0 -218 0 -20 -32z" style="fill: url(#gradient-2);"/>
    <path d="M3797 3128 c-160 -274 -169 -291 -158 -312 5 -12 54 -97 108 -191 l99 -170 220 -3 219 -2 109 189 c60 104 109 193 108 198 0 4 -49 92 -109 196 l-108 187 -217 0 -217 0 -54 -92z" style="paint-order: fill; fill: url(#gradient-1); stroke: rgb(0, 43, 41);"/>
    <path d="M2036 2735 c-10 -14 -60 -100 -112 -191 l-94 -165 101 -177 c56 -97 107 -183 114 -190 8 -9 40 -12 112 -10 l101 3 -104 185 c-57 102 -104 187 -104 190 0 4 45 87 100 185 55 99 100 183 100 188 0 4 -44 7 -99 7 -95 0 -99 -1 -115 -25z" style="fill: rgb(0, 140, 142);"/>
    <path d="M2382 2623 c-44 -76 -93 -162 -109 -191 l-31 -53 110 -190 110 -189 110 0 110 0 -25 43 c-13 23 -61 108 -107 190 l-82 147 105 190 105 190 -108 0 -108 0 -80 -137z" style="fill: rgb(0, 31, 28);"/>
    <path d="M2926 2728 c-48 -78 -198 -345 -199 -354 0 -6 48 -95 107 -198 l108 -186 221 2 222 3 108 188 109 188 -108 190 -109 189 -222 0 c-220 0 -223 0 -237 -22z" style="fill: rgb(0, 31, 28);"/>
    <path d="M1961 1498 c-18 -112 -36 -224 -40 -250 l-8 -48 53 0 c49 0 53 2 58 28 7 33 26 154 26 165 0 4 14 7 30 7 17 0 30 -5 30 -12 0 -16 -18 -135 -25 -165 -5 -22 -2 -23 50 -23 30 0 55 2 55 4 0 9 71 453 75 474 5 21 2 22 -49 22 l-54 0 -12 -72 c-21 -133 -19 -128 -51 -128 -33 0 -33 2 -19 86 22 129 27 114 -34 114 l-53 0 -32 -202z" style="paint-order: stroke; stroke: rgb(49, 218, 210); fill: rgb(0, 31, 28);"/>
    <path d="M2380 1687 c-39 -19 -56 -70 -84 -249 -29 -186 -26 -209 27 -228 16 -5 49 -10 72 -10 41 0 43 1 49 38 11 66 9 72 -25 72 -29 0 -30 1 -27 43 3 41 4 42 41 45 20 2 37 6 37 10 1 4 5 26 9 50 l8 42 -33 0 c-32 0 -34 2 -34 34 0 40 22 66 56 66 13 0 24 3 24 8 1 4 5 26 9 50 l8 42 -56 0 c-31 0 -67 -6 -81 -13z" style="paint-order: stroke; stroke: rgb(49, 218, 210); fill: rgb(0, 31, 28);"/>
    <path d="M2560 1693 c0 -5 13 -58 29 -120 l29 -112 -55 -98 c-30 -54 -64 -113 -75 -130 l-20 -33 66 0 65 0 28 52 28 52 14 -52 14 -52 64 0 c57 0 64 2 59 18 -16 53 -56 223 -56 237 0 14 54 117 112 213 l20 32 -66 0 c-66 0 -66 0 -83 -35 -9 -19 -20 -35 -24 -35 -5 0 -11 16 -15 35 l-6 35 -64 0 c-35 0 -64 -3 -64 -7z" style="paint-order: stroke; stroke: rgb(49, 218, 210); fill: rgb(0, 31, 28);"/>
    <path d="M3017 1689 c-9 -5 -23 -22 -31 -37 -12 -23 -166 -440 -166 -449 0 -1 25 -3 54 -3 l55 0 17 55 18 55 43 0 43 0 0 -55 0 -55 56 0 57 0 -7 193 c-8 226 -13 273 -33 292 -17 17 -80 19 -106 4z m33 -221 c0 -55 -1 -58 -25 -58 -30 0 -30 4 -8 80 21 69 33 60 33 -22z" style="paint-order: stroke; stroke: rgb(49, 218, 210); fill: rgb(0, 31, 28);"/>
    <path d="M3251 1503 c-33 -207 -35 -231 -25 -258 10 -26 59 -45 118 -45 59 0 58 -1 71 73 l6 37 -46 0 c-25 0 -45 4 -45 10 0 11 48 314 56 353 6 27 5 27 -49 27 l-54 0 -32 -197z" style="paint-order: stroke; stroke: rgb(49, 218, 210); fill: rgb(0, 31, 28);"/>
    <path d="M3574 1681 c-39 -24 -48 -49 -74 -213 -25 -159 -26 -231 -3 -249 9 -8 47 -15 93 -17 90 -5 142 13 163 55 13 24 67 330 67 378 0 9 -11 27 -25 40 -22 23 -32 25 -107 25 -64 0 -90 -4 -114 -19z m119 -93 c15 -12 14 -23 -6 -143 l-22 -130 -37 -3 c-36 -3 -38 -1 -38 25 0 59 38 245 51 254 19 12 32 11 52 -3z" style="paint-order: stroke; stroke: rgb(49, 218, 210); fill: rgb(0, 31, 28);"/>
    <path d="M3951 1687 c-48 -24 -60 -55 -87 -232 -15 -95 -24 -183 -20 -198 9 -37 53 -57 125 -57 108 0 141 33 160 160 7 41 14 87 17 103 6 27 5 27 -49 27 l-54 0 -14 -87 c-13 -80 -16 -88 -38 -91 -13 -2 -27 0 -32 5 -9 9 25 255 37 275 3 4 36 8 75 8 69 0 69 0 69 28 0 15 3 37 6 50 6 22 5 22 -82 22 -51 0 -99 -6 -113 -13z" style="paint-order: stroke; stroke: rgb(49, 218, 210); fill: rgb(0, 31, 28);"/>
    <path d="M4222 1683 c3 -10 20 -80 38 -155 l34 -137 -15 -95 -15 -96 52 0 c59 0 52 -11 74 126 10 60 24 93 96 219 46 81 84 149 84 151 0 2 -26 4 -58 4 l-58 0 -44 -91 c-50 -102 -49 -102 -65 34 l-6 57 -61 0 c-53 0 -60 -2 -56 -17z" style="paint-order: stroke; stroke: rgb(49, 218, 210); fill: rgb(0, 31, 28);"/>
    <path d="M4695 1583 c-14 -98 -9 -93 -86 -93 -65 0 -69 -1 -74 -25 -3 -14 -7 -36 -10 -50 -5 -25 -5 -25 66 -25 l71 0 -7 -57 c-4 -32 -8 -62 -8 -68 -1 -5 19 -11 45 -13 l46 -3 7 43 c16 106 8 98 86 98 75 0 74 -1 83 63 l5 37 -71 0 -70 0 7 57 c4 31 9 62 12 70 4 10 -7 13 -45 13 l-50 0 -7 -47z" style="fill: url(#gradient-3);"/>
    <path d="M5117 1608 c-3 -13 -9 -44 -12 -70 l-7 -48 -74 0 c-66 0 -74 -2 -74 -19 0 -10 -3 -33 -6 -50 l-6 -31 72 0 72 0 -7 -42 c-3 -24 -8 -56 -11 -71 -6 -28 -6 -28 43 -25 l48 3 9 66 9 67 72 7 c78 7 85 13 85 73 0 21 -4 22 -71 22 -62 0 -70 2 -65 18 2 9 8 41 11 70 l7 52 -45 0 c-38 0 -46 -3 -50 -22z" style="fill: url(#gradient-4);"/>
  </g>
</svg>